<svg id="delivery-truck" xmlns="http://www.w3.org/2000/svg" width="238.974" height="150" viewBox="0 0 238.974 150">
  <path id="Path_2" data-name="Path 2" d="M55.083-390.6a10.231,10.231,0,0,0-3.421,3.688c-.328.651-.656,4.609-.8,9.488l-.234,8.4-9.139.325c-5.015.163-9.186.326-9.28.38a8.885,8.885,0,0,0-.75,1.844c-.89,2.386-.328,4.337,1.64,5.476,1.453.868,3.421.922,25.168.813l23.621-.162,1.125-1.518a4.245,4.245,0,0,0,.141-5.476l-.937-1.41H58.363V-382.3h124.2l-.094,56.5-.141,56.551L155-269.091c-21.606.109-27.324,0-27.511-.542-2.156-7.265-4.124-10.736-7.967-14.1a18.52,18.52,0,0,0-21.84-2.006c-4.265,2.494-8.155,7.97-9.889,13.772l-.8,2.711-14.294.163-14.341.109v-24.941H64.69c5.718,0,6.421-.109,7.264-1.085a5.07,5.07,0,0,0-.047-6.235c-.891-1.084-1.547-1.084-26.246-1.084H20.307l-1.125,1.518a4.245,4.245,0,0,0-.141,5.476l.937,1.41H50.865v15.4c0,14.314.047,15.453.89,16.645l.89,1.3,17.247.271,17.2.272.562,2.168c2.156,8.458,8.577,14.965,16.4,16.591,9.42,2.006,19.965-5.422,22.637-15.886l.8-3.145h68l.609,2.711a22.545,22.545,0,0,0,10.967,14.368c11.061,5.91,23.9-.488,27.933-13.826l.89-2.982,4.405-.272c4.874-.326,6.327-1.03,7.921-3.958.89-1.627.937-2.548.8-17.729-.141-15.724-.141-16.049-1.312-19.249-.656-1.789-5.905-13.012-11.623-24.941-10.967-22.826-12.373-25.158-15.841-26.242-1.125-.38-7.311-.6-15.982-.6H190.107l-.141-16.429c-.141-16.157-.141-16.374-1.219-18.163-2.25-3.633,2.765-3.362-68.379-3.307C84.843-390.922,55.458-390.759,55.083-390.6Zm163.848,47.28c1.547,2.06,21.325,43.809,21.981,46.358.516,2.06.7,5.8.7,15.344v12.688l-2.859-.163-2.812-.163-.8-2.711c-3.562-12.145-14.154-18.868-24.7-15.724-6.8,2.06-12.56,8.512-14.529,16.266-.562,2.169-.562,2.169-3.234,2.331l-2.625.163v-75.419h14.06C217.29-344.347,218.227-344.293,218.93-343.318ZM111.276-278.959c2.906.976,6.186,4.229,7.639,7.482a19.328,19.328,0,0,1,.656,11.549,15.377,15.377,0,0,1-6.561,8.675,12.639,12.639,0,0,1-10.733.488,16.372,16.372,0,0,1-6.889-8.025,20.41,20.41,0,0,1,.234-12.633c1.968-4.609,6.89-8.3,11.3-8.35A13.87,13.87,0,0,1,111.276-278.959Zm108.919.217c8.9,3.85,11.2,17.73,4.171,25.049-2.718,2.819-4.921,3.849-8.53,3.849-7.264.055-12.56-5.639-13.029-13.934-.234-4.826.89-8.3,3.843-11.657C210.307-279.61,215.368-280.857,220.2-278.742Z" transform="translate(-10.105 390.949)" fill="#ffffff"/>
  <path id="Path_3" data-name="Path 3" d="M73.671-317.4c-1.881,1.094-1.925,1.444-1.969,12.469V-294.3h-5.25c-5.032,0-5.338.044-6.344,1.094a3.215,3.215,0,0,0,0,4.812l1.05,1.094H93.272c31.852,0,32.158,0,33.3-.919a3.351,3.351,0,0,0,0-5.163c-1.138-.919-1.575-.919-24.5-.919H78.7v-21.089l-1.269-1.269C76.078-318.016,75.071-318.191,73.671-317.4Z" transform="translate(-4.75 360.079)" fill="#212121"/>
  <path id="Path_4" data-name="Path 4" d="M.859-305.3c-1.488,1.05-1.356,4.157.219,5.425,1.138.875,1.488.919,14.482.788l13.3-.132.831-1.05a3.6,3.6,0,0,0-.175-4.769C28.511-306,28.248-306,15.166-306,3.834-306,1.691-305.913.859-305.3Z" transform="translate(0.184 352.602)" fill="#212121"/>
</svg>
