<svg xmlns="http://www.w3.org/2000/svg" width="150" height="150" viewBox="0 0 150 150">
  <g id="Group_51" data-name="Group 51" transform="translate(2519 -2847.91)">
    <path id="Path_5" data-name="Path 5" d="M219.565-500.344a12.414,12.414,0,0,0-7.192,6.619l-.878,1.857v25.663c0,29.951-.236,27.79,3.546,31.572,2.87,2.87,4.322,3.41,9.556,3.647l3.951.134v8.577c0,8.137.034,8.61.675,9.252a2.706,2.706,0,0,0,1.857.676c1.418,0,.945.439,11.481-10.536l7.665-8,21.679-.1,21.645-.1,2.262-1.114a12.2,12.2,0,0,0,6.011-6.348c.675-1.857.675-2.262.608-27.959l-.1-26.035-.945-1.79a12.864,12.864,0,0,0-5.369-5.369l-1.79-.946-36.637-.067C228.412-500.749,220.679-500.682,219.565-500.344Zm74.153,5.572a9.186,9.186,0,0,1,2.195,1.857l1.013,1.283.1,25.393.067,25.359-.912,1.452a6.541,6.541,0,0,1-2.6,2.263l-1.688.844H270.215c-11.92,0-21.915.067-22.185.169-.27.135-3.512,3.377-7.26,7.227l-6.753,7.057-.135-6.348c-.135-8.476.27-8-7.125-8.172-5.065-.1-5.572-.169-6.753-.912a8.887,8.887,0,0,1-2.195-2.161l-.912-1.384-.1-24.312c-.067-16.985,0-24.717.27-25.629a7.706,7.706,0,0,1,3.545-4.154c.81-.371,7.935-.439,36.469-.473C290.982-495.414,292.6-495.38,293.717-494.772Z" transform="translate(-2671.458 3348.633)" fill="#212121"/>
    <path id="Path_6" data-name="Path 6" d="M251.572-462.172C233-457.208,233-457.208,233-455.115c0,1.756.844,2.3,5.909,3.647l4.728,1.249.169,9.016c.169,8.577.2,9.083.878,9.725.574.574,2.634,1.081,10.468,2.6,9.151,1.79,10.062,1.891,14.993,1.925,4.964.033,5.706-.068,14.689-1.79,5.2-.979,9.86-1.993,10.4-2.229l.912-.439v9.455l1.013,1.013c1.283,1.249,2.431,1.148,4.423-.439l1.317-1.046,1.317,1.046c1.992,1.587,3.14,1.689,4.423.439l1.013-1.013v-6.618a54.853,54.853,0,0,0-.3-7.4,5.787,5.787,0,0,0-2.026-1.823l-1.722-.945v-13.405l1.013-.946a2.728,2.728,0,0,0,1.013-1.958c0-2.2.1-2.161-18.775-7.193-9.624-2.566-18.065-4.66-18.707-4.66C269.5-466.866,261.128-464.739,251.572-462.172Zm30.492,3.748c6.45,1.689,11.717,3.175,11.717,3.276s-5.268,1.621-11.717,3.309L270.38-448.7,258.6-451.84c-6.45-1.688-11.751-3.207-11.751-3.309,0-.135,21.678-6.044,23.3-6.348C270.245-461.531,275.58-460.147,282.063-458.425ZM300.2-444.917v6.18l-1.688.945-1.689.946.068-6.652.1-6.652,1.351-.439c.743-.2,1.452-.405,1.621-.439A38.694,38.694,0,0,1,300.2-444.917Zm-40.149-.946c5.3,1.418,9.961,2.566,10.333,2.566.507,0,17.525-4.39,20.463-5.268.54-.169.574.3.574,6.382v6.584l-1.655.372c-5.774,1.216-15.2,2.8-17.8,2.972-3.748.237-8.577-.439-20.969-2.972l-1.79-.338v-6.585c0-6.112.034-6.584.608-6.415C250.12-448.463,254.746-447.247,260.047-445.863Zm44.2,15.06v2.533h-2.7v-2.566c0-2.33.068-2.6.777-2.9C303.776-434.382,304.248-433.639,304.248-430.8Z" transform="translate(-2685.703 3326.231)" fill="#212121"/>
    <path id="Path_7" data-name="Path 7" d="M40.812-388.368c-7.742,1.653-13.669,7.032-15.454,14.037a19.189,19.189,0,0,0,.575,9.862,18.422,18.422,0,0,0,6.29,8.4c.817.561,1.391,1.121,1.24,1.233a17.368,17.368,0,0,1-2.026.784,37.125,37.125,0,0,0-19.6,16.446c-.6,1.121-.968,1.485-1.694,1.6a3.659,3.659,0,0,0-1.512.785C8-334.576,8-334.492,8-309.445c0,24.991,0,25.1.635,25.86l.6.728H156.76l.6-.728c.635-.757.635-.869.635-25.635,0-17.651-.091-25.075-.333-25.552-.6-1.2-1.331-1.316-9.738-1.316h-7.923l-1.21-2.185a20.172,20.172,0,0,0-8.619-7.873,20.934,20.934,0,0,0-17.843,0,20.081,20.081,0,0,0-8.649,7.873l-1.179,2.185H78.524l-1.119-2.017c-4.113-7.509-11.643-13.42-21.109-16.558-.454-.168-.242-.42,1.27-1.6a21.891,21.891,0,0,0,5.141-6.108A19.147,19.147,0,0,0,64.1-374.612,19.713,19.713,0,0,0,50.49-387.92,24.174,24.174,0,0,0,40.812-388.368Zm7.379,4.511A14.951,14.951,0,0,1,59.29-373.8a14.869,14.869,0,0,1-.06,7.2,15.193,15.193,0,0,1-16.542,10.058c-7.319-.981-12.913-6.92-12.913-13.728A12.751,12.751,0,0,1,34.28-380.1,15.214,15.214,0,0,1,48.192-383.857Zm2.389,32.5A32.136,32.136,0,0,1,71.357-338.75a22.185,22.185,0,0,1,1.663,2.493c0,.085-12.732.169-28.276.169H16.437l.514-.925c1.573-2.858,6.442-7.7,9.8-9.75a35.26,35.26,0,0,1,11.976-4.567A45.376,45.376,0,0,1,50.581-351.358Zm74.3,8.125c9.224,2.241,13.942,11.683,9.8,19.612-5.141,9.778-19.96,10.422-26.25,1.12a13.675,13.675,0,0,1-1.694-10.927C108.766-340.543,117.143-345.082,124.885-343.233Zm-23.377,14.485a17.653,17.653,0,0,0,7.742,13.7l.968.7-2.48.925a36.607,36.607,0,0,0-13.216,8.293,39.333,39.333,0,0,0-6.472,8.4,41.179,41.179,0,0,0-2.933,7.761l-.333,1.625H12.839v-44.267h88.518ZM153.131-315.3c0,12.748-.091,16.222-.363,15.8a38.44,38.44,0,0,0-18.78-14.2l-1.633-.561,2.631-2.437c4.052-3.727,6.079-8.041,6.079-12.86v-2.045h12.1Zm-25.706,4.595c11.7,1.933,21.5,10.367,24.8,21.349l.6,2.017H89.653l.181-.784a31.564,31.564,0,0,1,10.01-15.662C107.8-310.089,117.022-312.415,127.425-310.706Z" transform="translate(-2527 3280.767)" fill="#212121"/>
  </g>
</svg>
