<svg xmlns="http://www.w3.org/2000/svg" width="74" height="73.996" viewBox="0 0 74 73.996">
  <g id="investment" transform="translate(-0.504 -0.502)">
    <path id="Path_88" data-name="Path 88" d="M11.109,40.563a2.466,2.466,0,0,0-2.452-2.306H2.977A2.476,2.476,0,0,0,.5,40.73V61.52a2.476,2.476,0,0,0,2.473,2.472h5.68a2.469,2.469,0,0,0,2.252-1.469L30.2,72.356A19.491,19.491,0,0,0,46.584,73c7.4-3.079,20.538-8.741,25.349-12.078a6.019,6.019,0,0,0,1.593-8.22.047.047,0,0,1-.007-.011l-.027-.042A6,6,0,0,0,66.735,50.5c-1.271.42-3.932,1.294-6.831,2.22A20.986,20.986,0,0,0,60.778,20.1a4.911,4.911,0,0,0,.4-.345,5.112,5.112,0,0,0-3.618-8.717h-.091l1.681-4.8A2.811,2.811,0,0,0,58.8,3.654a2.927,2.927,0,0,0-2.378-1.231,2.331,2.331,0,0,0-1.988.978l-.244-.558a3.807,3.807,0,0,0-6.577-.793,1.479,1.479,0,0,0-.139.181.839.839,0,0,1-.718.384.853.853,0,0,1-.716-.384,3.813,3.813,0,0,0-6.683.564l-.129.593a2.966,2.966,0,0,0-4.519.267,2.8,2.8,0,0,0-.348,2.586l1.7,4.851a5.055,5.055,0,0,0-4.536,5.05,5.117,5.117,0,0,0,1.881,3.967,20.914,20.914,0,0,0-6.827,20.447ZM8.166,61.033h-4.7V41.218h4.7ZM67.66,53.307a3,3,0,0,1,3.371.986h0l.022.034a3.041,3.041,0,0,1-.807,4.155c-4.587,3.183-17.507,8.746-24.8,11.78a16.7,16.7,0,0,1-13.9-.546L11.127,59.312V43.524H26.611c6.56,0,5.915,6.871,14.049,6.871h8.367a2.972,2.972,0,0,1,2.911,2.3,2.729,2.729,0,0,1-2.683,3.154H29.875a1.48,1.48,0,1,0,0,2.96H49.255C51.054,58.807,65.818,53.916,67.66,53.307ZM39.148,6.345A2.818,2.818,0,0,0,41.78,4.611l.286-.624a.831.831,0,0,1,.782-.518.84.84,0,0,1,.718.39,3.822,3.822,0,0,0,6.249.186,1.485,1.485,0,0,0,.149-.192.826.826,0,0,1,.71-.39.846.846,0,0,1,.794.543l.244.561A2.87,2.87,0,0,0,54.36,6.327a2.833,2.833,0,0,0,1.872-.7l-1.9,5.414H39.177l-1.9-5.413A2.817,2.817,0,0,0,39.148,6.345Zm-4.019,8.272c.885-.9,1.983-.534,3-.62H57.563a2.155,2.155,0,0,1,.136,4.3l-21.053,0-.2-.008a2.158,2.158,0,0,1-1.963-2.153A2.1,2.1,0,0,1,35.129,14.617Zm1.612,6.647H57.455A18.036,18.036,0,0,1,54.89,52.339a5.742,5.742,0,0,0-5.635-4.9h-.228c-.012,0-.023,0-.035,0H40.657a7.429,7.429,0,0,1-4.608-1.614c-.022-.018-.046-.032-.068-.05-1.374-1.115-2.449-3.6-6.249-4.744a18.069,18.069,0,0,1,7.009-19.759Z" transform="translate(0)" fill="#fff"/>
    <path id="Path_89" data-name="Path 89" d="M36.064,40.182A12.58,12.58,0,1,0,23.484,27.6,12.594,12.594,0,0,0,36.064,40.182Zm0-22.2a9.62,9.62,0,1,1-9.62,9.62A9.63,9.63,0,0,1,36.064,17.981Z" transform="translate(11.038 6.97)" fill="#fff"/>
    <path id="Path_90" data-name="Path 90" d="M30.334,28.9a.619.619,0,0,0-.7.114.6.6,0,0,0,.237.976,8.569,8.569,0,0,0,3.07.688v1.119a.3.3,0,0,0,.315.316.306.306,0,0,0,.33-.316V30.675c1.8-.1,3.371-1.069,3.371-2.8,0-1.918-1.529-2.468-3.371-2.9V21.569a6.614,6.614,0,0,1,2.151.387.588.588,0,1,0,.4-1.1,8.123,8.123,0,0,0-2.552-.473v-1.1a.317.317,0,0,0-.33-.33.306.306,0,0,0-.315.33v1.119c-2.241.119-3.371,1.419-3.371,2.925,0,1.841,1.623,2.4,3.371,2.854v3.285A6.877,6.877,0,0,1,30.334,28.9Zm3.255-2.568c.91.241,2.08.556,2.08,1.463q0,1.506-2.08,1.649Zm-2.724-3.112c0-1.046,1.037-1.524,2.08-1.62v3.227C31.948,24.572,30.865,24.246,30.865,23.218Z" transform="translate(13.913 8.853)" fill="#fff"/>
  </g>
</svg>
