<svg xmlns="http://www.w3.org/2000/svg" width="70.606" height="74" viewBox="0 0 70.606 74">
  <g id="progress" transform="translate(-32.107 503.751)">
    <path id="Path_95" data-name="Path 95" d="M197.049-503.5a5.114,5.114,0,0,0-3.559,4.179,5.364,5.364,0,0,0,.874,3.893,5.336,5.336,0,0,0,8.087.731,4.565,4.565,0,0,0,1.509-3.559,3.766,3.766,0,0,0-.365-2.32,5.816,5.816,0,0,0-2.7-2.749A5.824,5.824,0,0,0,197.049-503.5Zm3.13,2.59a2.823,2.823,0,0,1,.032,4.862,2.806,2.806,0,0,1-4.29-2.1A2.812,2.812,0,0,1,200.179-500.915Z" transform="translate(-135.912 0)"/>
    <path id="Path_96" data-name="Path 96" d="M55.685-431.482a41.964,41.964,0,0,0-6.657,1.891c-.985.54-1.287.937-3.051,4.068-1.3,2.288-1.494,2.558-1.938,2.653-.81.159-1.255.556-1.843,1.621l-.572,1.017-.89-.461a3.672,3.672,0,0,0-1.843-.445c-1.954,0-2.51.508-4.846,4.4-1.764,2.939-1.859,3.162-1.923,4.1a3.4,3.4,0,0,0,.81,2.733,54.151,54.151,0,0,0,5.545,3.575c4.512,2.685,5.164,3.019,5.927,3.1a3.237,3.237,0,0,0,2.669-.874,70.692,70.692,0,0,0,4.242-6.705,4.081,4.081,0,0,0-.127-2.939,4.516,4.516,0,0,0-1.652-1.732l-.413-.27.62-1.065c.636-1.1.794-1.954.461-2.574-.238-.461,1.557-4.02,2.24-4.433a3.087,3.087,0,0,1,1.684-.445c.032.048-.365,2.288-.906,4.989-.81,3.988-.969,5.053-.89,5.768.064.477.286,2.542.493,4.576l.4,3.686-2.844,4.274c-2.034,3.067-2.876,4.449-2.955,4.91a3.315,3.315,0,0,0,1.7,3.384,2.8,2.8,0,0,0,1.716.27c1.716-.1,1.827-.207,5.355-5.529,1.716-2.574,3.21-4.91,3.321-5.2a10.6,10.6,0,0,0,.064-4.1,9.777,9.777,0,0,1-.1-1.462,18.015,18.015,0,0,1,2.431.794c.016.032-.238,1.621-.6,3.543a23.3,23.3,0,0,0-.54,4.036,3.065,3.065,0,0,0,5.084,1.891,2.969,2.969,0,0,0,.683-.89c.27-.667,1.938-9.581,1.938-10.312a4.53,4.53,0,0,0-1.366-2.781,16.97,16.97,0,0,0-2.24-1.478c-.937-.524-1.589-.985-1.557-1.1s.318-1.446.636-2.971.6-2.876.651-2.987c.048-.143.4.079,1.065.667,2.717,2.383,5.545,3.21,9.533,2.828a3.736,3.736,0,0,0,2.209-.6,3.052,3.052,0,0,0,1.319-2.685,2.827,2.827,0,0,0-1.4-2.59c-.6-.4-.779-.429-3.035-.524-3.019-.1-3.146-.159-5.259-2.51-2.685-2.987-3.559-3.5-7.643-4.449C58.5-431.5,56.941-431.673,55.685-431.482Zm5.037,3.035a23.533,23.533,0,0,1,3.5,1.049,9.139,9.139,0,0,1,2.272,1.954c2.415,2.59,2.939,3.051,3.877,3.5.794.365,1.128.429,3.194.493a16.838,16.838,0,0,1,2.51.207.9.9,0,0,1-.111,1.223,11.315,11.315,0,0,1-2.288.159c-3.21,0-4.385-.493-7.341-3.1a16.957,16.957,0,0,0-2.1-1.684,1.2,1.2,0,0,0-1.366.524c-.127.207-.683,2.526-1.239,5.18-.763,3.734-.969,4.91-.842,5.243.111.318.572.667,1.891,1.4.969.54,2.034,1.192,2.383,1.446,1.128.81,1.128.7.143,5.863-.906,4.767-1.049,5.148-1.668,4.814-.413-.222-.4-.492.4-4.814.7-3.782.715-4.258.238-4.655-.127-.1-2.081-.826-4.354-1.637-2.272-.794-4.29-1.557-4.481-1.684-.731-.461-.7-.874.54-7.055.651-3.194,1.144-6.006,1.128-6.26a1.235,1.235,0,0,0-.493-.794l-.429-.318-2.145.524c-3.194.779-3.686,1.176-5.2,4.195a6.323,6.323,0,0,1-1.112,1.8.74.74,0,0,1-.922-.588,31.571,31.571,0,0,1,3.353-5.879,20.359,20.359,0,0,1,3.1-1C56.623-429.274,57.243-429.274,60.722-428.448Zm-14.6,9.772a3.5,3.5,0,0,0,1.065.238c.572,0,.588.175.143.906-.318.493-.365.524-.683.318-.175-.127-.922-.556-1.637-.969l-1.319-.763.35-.6.365-.6.572.62A4.224,4.224,0,0,0,46.12-418.676Zm-6.514.191c1.208.62,8.8,5.2,9.136,5.5a1.353,1.353,0,0,1,.207,1.525c-.1.159-1.43-.556-5.672-3.1-3.051-1.811-5.577-3.321-5.625-3.368-.143-.111.81-.826,1.128-.826A2.146,2.146,0,0,1,39.606-418.485Zm2.367,6.022c3,1.8,5.466,3.289,5.482,3.3a18.735,18.735,0,0,1-2.367,3.416c-.413.238-.429.238-9.216-5.021-.985-.588-1.4-1.049-1.4-1.557a15.21,15.21,0,0,1,1.923-3.416C36.46-415.737,38.97-414.259,41.973-412.463ZM56.766-409.7a36.312,36.312,0,0,1,.508,5.545c-.064.143-1.43,2.272-3.051,4.751-3.035,4.608-3.337,4.957-4,4.528-.588-.381-.286-1.017,2.463-5.132,1.494-2.224,2.8-4.211,2.892-4.4a21.367,21.367,0,0,0-.365-5.323l-.079-.588.747.254A4.343,4.343,0,0,1,56.766-409.7Z" transform="translate(0 -60.725)"/>
    <path id="Path_97" data-name="Path 97" d="M91-298.635c-.441.477-.441.842.063,2.1a4.474,4.474,0,0,1,.363,1.1c-.032.032-9.174,3.75-20.319,8.246C36.332-273.133,34.3-272.307,34-271.989a1.168,1.168,0,0,0-.3.747,66.315,66.315,0,0,0,3.153,7.929,1.489,1.489,0,0,0,.583.318c.363.1,1.7-.445,37.375-14.983,6.337-2.59,13.415-5.466,15.747-6.419s4.319-1.732,4.414-1.732.347.445.552.969c.473,1.223.8,1.573,1.5,1.573.709,0,.709.016,4.1-5.815,2.822-4.862,3.042-5.37,2.569-6.006A109.763,109.763,0,0,0,91.819-299,1.156,1.156,0,0,0,91-298.635Zm6.81,3.845c1.639.477,3,.89,3.027.922.016.032-1.056,1.891-3.231,5.593l-.363.636-.3-.572a1.814,1.814,0,0,0-.741-.763c-.441-.191-1.655.286-19.83,7.69C49.2-270.209,38.918-266.014,38.6-265.9c-.2.079-.426-.334-1.2-2.272l-.946-2.352L65.085-282.11c16.346-6.61,28.752-11.71,28.926-11.885a1.75,1.75,0,0,0,.032-1.7c-.095-.254-.047-.254.331-.127C94.625-295.743,96.17-295.282,97.809-294.789Z" transform="translate(-1.34 -176.988)"/>
    <path id="Path_98" data-name="Path 98" d="M397.461-175.7l-.381.3-.048,12.648L397-150.085l.381.381.4.4H409.5l.334-.365.35-.365v-25.184l-.4-.381-.381-.4h-5.784C398.16-176,397.81-175.984,397.461-175.7Zm10.264,13.045v10.884l-4.083.048-4.1.032v-21.927l4.1.032,4.083.048Z" transform="translate(-307.475 -280.444)"/>
    <path id="Path_99" data-name="Path 99" d="M282.661-124.619l-.445.381-.048,8.246c-.016,4.528,0,8.389.048,8.6a1.73,1.73,0,0,0,.4.667c.3.3.556.318,6.165.318,5.672,0,5.863-.016,6.2-.318l.35-.334v-17.287l-.413-.318c-.413-.318-.6-.334-6.117-.334h-5.688Zm10.28,8.993v6.832h-8.262v-13.665h8.262Z" transform="translate(-210.707 -323.341)"/>
    <path id="Path_100" data-name="Path 100" d="M168.413-90.666l-.413.318v5.958c0,5.736.016,5.958.318,6.26s.524.318,6.2.318c5.609,0,5.895-.016,6.181-.3a1.827,1.827,0,0,0,.413-.842c.048-.286.079-2.939.048-5.895l-.048-5.386-.445-.381L180.219-91H174.53C169.017-91,168.826-90.984,168.413-90.666Zm10.232,6.34V-80.2h-8.262v-8.262h8.262Z" transform="translate(-114.509 -351.939)"/>
    <path id="Path_101" data-name="Path 101" d="M52.715-56.835c-.667.381-.7.572-.715,3.718,0,2.844.016,3.067.334,3.464l.318.413H64.409l.381-.4c.4-.381.4-.413.4-3.321,0-3.225-.1-3.639-.842-3.909A94.523,94.523,0,0,0,52.715-56.835Zm9.931,3.782v1.43l-4.083-.032-4.1-.048-.048-1.4-.048-1.382h8.278Z" transform="translate(-16.732 -380.511)"/>
  </g>
</svg>
