<svg id="yoga-pose_1" xmlns="http://www.w3.org/2000/svg" width="150" height="150" viewBox="0 0 150 150">
  <path id="Path_8" data-name="Path 8" d="M117.181-497.472c-.26.31-1.886,3.292-3.577,6.615s-5.919,10.9-9.431,16.8c-7.415,12.517-8.13,13.853-8.813,16.151-.26.9-1.171,5.311-2.016,9.753s-1.594,8.106-1.626,8.168-2.894.9-6.374,1.895a60.242,60.242,0,0,0-7.773,2.578,12.508,12.508,0,0,0-4.813,5.187c-.781,1.646-.846,2.019-.846,6.4a54.435,54.435,0,0,1-.618,8.386,40.86,40.86,0,0,0-.423,9.162,59.92,59.92,0,0,0,.553,7.237,8.385,8.385,0,0,1,.26,1.895c-.065.062-4.488-1.3-9.854-3.013-9.4-3.013-9.854-3.137-12.684-3.137-2.634,0-3.122.093-5.073.993a13.665,13.665,0,0,0-6.5,6.492c-1.236,3.137-1.041,4.876,2.277,19.505,1.626,7.175,3.025,13.293,3.09,13.573.1.435-.618.932-2.927,2.143a31.208,31.208,0,0,0-4.065,2.392c-3.382,2.7-2.049,8.168,2.277,9.411a47.218,47.218,0,0,0,7.675.218c6.017-.093,6.634-.155,8.228-.839a12.657,12.657,0,0,0,5.724-5.839c.911-2.64.878-3.82-.228-13.293-.618-5.125-1.106-9.349-1.073-9.38s1.431.714,3.122,1.677c1.691.932,5.431,2.827,8.293,4.193s12.684,6.771,21.79,11.989c9.139,5.218,17.334,9.784,18.245,10.188,3.805,1.615,4.13,1.615,38.831,1.864,29.725.186,32.457.155,33.4-.311,1.984-.963,2.374-3.137.976-5.094-.488-.621-3.09-3.51-5.821-6.4-5.789-6.15-6.83-6.833-10.31-6.833a8.358,8.358,0,0,0-6.5,2.764c-1.2,1.243-1.5,1.4-3.675,1.74l-2.374.373-7.643-2.05c-4.2-1.118-8.521-2.268-9.594-2.547a40.644,40.644,0,0,0-6.5-.683,27.053,27.053,0,0,0-7.805.5,12.955,12.955,0,0,1-3.447.4c-.1-.124-3.415-3.448-7.317-7.392l-7.155-7.144-.423-2.143a22.258,22.258,0,0,0-5.854-10.188l-2.569-2.64-.228-2.578a26.512,26.512,0,0,1,1.2-9.846A28,28,0,0,1,103-417.991a45.879,45.879,0,0,0,3.122-4.037,16.838,16.838,0,0,0,1.724-5.094c0-.715.065-.746,1.236-.528a11.6,11.6,0,0,1,1.268.28,6.121,6.121,0,0,1-.228,1.273,21.141,21.141,0,0,0,.163,8.075,17.614,17.614,0,0,0,9.627,11c3.22,1.491,4.521,1.615,5.659.5,1.041-.963,1.008-1.274-.2-5.467-1.431-4.845-1.268-6.553.878-10.5,1.594-2.889,1.594-2.919,1.594-5.9,0-2.609-.13-3.168-.846-4.535-.683-1.242-.813-1.709-.553-2.33a11.716,11.716,0,0,0,.325-2.95c.033-4.566-2.244-7.7-7.545-10.405a16.088,16.088,0,0,1-4.781-3.354l-1.691-1.74.781-.963c3.252-3.82,3.805-4.969,6.992-14.567l3.09-9.287,2.992-2.112c3.35-2.392,3.057-1.895,4.813-8.572,1.2-4.721,1.2-5.622-.163-6.305A97.935,97.935,0,0,0,118.775-498,2.6,2.6,0,0,0,117.181-497.472Zm6.147,5.249c1.431.248,2.732.528,2.96.59.26.093.163.932-.39,2.982a14.821,14.821,0,0,1-1.041,3.074c-.13.094-1.073.746-2.049,1.4-3.545,2.361-3.317,1.988-6.537,11.492-1.594,4.783-3.155,9.287-3.415,10.032a35.983,35.983,0,0,1-3.773,5.28c-1.821,2.174-3.48,4.255-3.74,4.628-.488.683-.553,1.273-2.016,18.418-.65,7.206-.715,7.7-1.659,9.5-2.212,4.286-6.179,5.839-9.529,3.727a6.27,6.27,0,0,1-2.5-5c0-2.019.781-3.51,3.773-7.144,1.268-1.553,2.407-2.95,2.537-3.168.1-.217,1.171-4.876,2.309-10.4,1.171-5.529,2.277-10.467,2.5-10.964.2-.528,3.642-6.492,7.643-13.263,4-6.8,8.326-14.442,9.594-17.02a30.648,30.648,0,0,1,2.569-4.659C120.694-492.72,121.93-492.5,123.328-492.223Zm-9.236,47.179c-.065.155-.488,1.118-.943,2.081-.683,1.491-.976,1.8-1.854,1.957-.553.124-1.268.28-1.626.373-.585.156-.585,0-.39-2.422.13-1.429.293-3.417.423-4.41l.2-1.8,2.146,1.957A9.429,9.429,0,0,1,114.092-445.044Zm6.992,4.348a6.651,6.651,0,0,1,0,5,8.618,8.618,0,0,1-4.521,3.541,9.066,9.066,0,0,1-3.838.031c-4.586-.684-4.26-.528-4.163-1.988l.1-1.3,3.317-.653a18.138,18.138,0,0,0,3.87-1.087,6.226,6.226,0,0,0,1.138-1.739c.358-.746.911-1.988,1.268-2.764l.683-1.46.813.746A6.689,6.689,0,0,1,121.084-440.7ZM86.22-432.4c-2.8,4.845-2.179,10.747,1.463,14.225,1.463,1.4,4.228,2.8,5.561,2.8a2.415,2.415,0,0,1,1.041.186c.325.311-.846,2.329-1.268,2.174-.2-.062-3.805-2.174-8.033-4.69l-7.643-4.535-.228-2.3c-.228-2.112-.163-2.485.618-3.945a6.542,6.542,0,0,1,1.951-2.361,36.616,36.616,0,0,1,6.927-2.827C86.838-433.707,86.676-433.179,86.22-432.4Zm35.319,7.765a13.853,13.853,0,0,0-2.244,8.7l.13,2.733-1.2-1.118a10.836,10.836,0,0,1-3.155-7.423,15.362,15.362,0,0,1,.228-3.759c.358-1.242.423-1.3,2.407-1.8a15.616,15.616,0,0,0,3.512-1.46l1.431-.9.1,1.4C122.84-427.154,122.613-426.5,121.539-424.638ZM83.846-412.555c3.805,2.267,7.09,4.255,7.317,4.442.293.248.26,1.056-.13,3.447a28.7,28.7,0,0,0-.325,5.622l.2,2.547-5.756.186c-3.155.124-6.179.279-6.667.341-1.138.186-1.333-.248-2.049-4.876a41.986,41.986,0,0,1-.358-8.79c.2-4.784.423-6.989.748-6.989C76.887-416.624,80.041-414.792,83.846-412.555Zm-21.107,17.8,12.423,3.882,8.911-.373,8.878-.373,2.212,2.206a14.766,14.766,0,0,1,4.488,8.293c.618,2.671.65,2.764,2.862,4.969,11.773,11.772,15.253,15.157,15.871,15.312a13.2,13.2,0,0,0,3.48-.528,35.207,35.207,0,0,1,12.944-.466c1.3.248,5.691,1.367,9.692,2.423l7.317,1.957-.13,2.081a7.273,7.273,0,0,1-.325,2.267c-.1.124-8.358.062-18.375-.062l-18.147-.28-1.951-.776c-1.073-.435-9.562-5.125-18.863-10.436S74.74-375.44,71.846-376.806c-2.894-1.4-7.643-3.913-10.57-5.653a40.308,40.308,0,0,0-5.984-3.106,3.139,3.139,0,0,0-1.561.652c-1.106.839-1.106,1.367.13,11.927.52,4.628.976,8.541.976,8.728,0,.217-1.236.4-3.317.528-1.854.093-3.382.155-3.415.124,0-.031-1.431-6.336-3.155-13.977-3.447-15.312-3.447-15.374-1.691-17.89a8.234,8.234,0,0,1,5.789-3.137C49.763-398.61,55.617-396.963,62.739-394.758Zm105.7,33.3a32.675,32.675,0,0,1,4.651,4.41l3.642,3.945-9.952.093c-5.464.031-9.952.031-9.952,0a20.2,20.2,0,0,1,.065-2.143l.13-2.05,2.472-.435c2.537-.4,2.992-.652,4.521-2.547a5.3,5.3,0,0,1,2.959-1.77A4.555,4.555,0,0,1,168.436-361.463ZM55.292-358.015a6.022,6.022,0,0,1-3.22,3.851c-1.268.528-2.081.59-7.057.528-7.09-.124-7.22-.28-2.212-2.889,3.87-1.988,4.586-2.143,10.179-2.267l2.5-.062Z" transform="translate(-34.033 498)"/>
</svg>
